Coordinates
version=1
nRows=43
nColumns=12
inDegrees=yes

Units are S.I. units (second, meters, Newtons, ...)
Angles are in degrees

endheader
time	SC_y	SC_z	SC_x	AC_y	AC_z	AC_x	GH_y	GH_z	GH_yy	EL_x	PS_y
       0.0              -33.77          36.52          80.32          45.97         -11.32         -19.38         -13.09          29.92          134.0          12.82          45.91
   0.03272              -33.77          36.52          80.32          45.97         -11.32         -19.38         -13.09          29.93          134.0          12.83          45.92
   0.06543              -33.77          36.51          80.32          45.97         -11.32         -19.37          -13.1          29.94          134.0          12.85          45.92
   0.09815              -33.77          36.51          80.32          45.97         -11.32         -19.37         -13.11          29.94          133.9          12.86          45.93
    0.1309              -33.77          36.51          80.32          45.97         -11.32         -19.36         -13.12          29.95          133.9          12.88          45.94
    0.1636              -33.77           36.5          80.32          45.97         -11.32         -19.36         -13.13          29.96          133.8           12.9          45.94
    0.1963              -33.77           36.5          80.32          45.97         -11.32         -19.35         -13.14          29.97          133.8          12.92          45.95
     0.229              -33.78          36.49          80.33          45.97         -11.31         -19.35         -13.15          29.98          133.7          12.94          45.96
    0.2617              -33.78          36.49          80.33          45.96         -11.31         -19.34         -13.16          29.99          133.7          12.97          45.97
    0.2944              -33.78          36.48          80.33          45.96         -11.31         -19.33         -13.17           30.0          133.6          12.99          45.98
    0.3272              -33.78          36.48          80.33          45.96         -11.31         -19.32         -13.18          30.02          133.5          13.02          45.99
    0.3599              -33.78          36.47          80.33          45.96         -11.31         -19.31          -13.2          30.03          133.5          13.05           46.0
    0.3926              -33.79          36.46          80.33          45.96         -11.31         -19.31         -13.21          30.05          133.4          13.08          46.01
    0.4253              -33.79          36.46          80.33          45.95         -11.31          -19.3         -13.23          30.06          133.3          13.12          46.02
     0.458              -33.79          36.45          80.33          45.95         -11.31         -19.28         -13.25          30.08          133.2          13.15          46.04
    0.4907               -33.8          36.44          80.33          45.95         -11.31         -19.27         -13.27           30.1          133.1          13.19          46.05
    0.5235               -33.8          36.43          80.33          45.94          -11.3         -19.26         -13.29          30.12          133.0          13.24          46.07
    0.5562               -33.8          36.42          80.34          45.94          -11.3         -19.25         -13.31          30.14          132.9          13.28          46.09
    0.5889              -33.81          36.41          80.34          45.94          -11.3         -19.23         -13.34          30.17          132.8          13.34          46.11
    0.6216              -33.81           36.4          80.34          45.93          -11.3         -19.21         -13.36          30.19          132.6          13.39          46.13
    0.6543              -33.82          36.38          80.34          45.93         -11.29          -19.2          -13.4          30.22          132.5          13.46          46.15
     0.687              -33.82          36.37          80.34          45.92         -11.29         -19.17         -13.43          30.25          132.3          13.52          46.18
    0.7197              -33.83          36.35          80.35          45.92         -11.29         -19.15         -13.47          30.29          132.1           13.6          46.21
    0.7525              -33.84          36.33          80.35          45.91         -11.29         -19.13         -13.51          30.33          131.9          13.68          46.24
    0.7852              -33.84          36.31          80.35          45.91         -11.28          -19.1         -13.55          30.37          131.7          13.78          46.28
    0.8179              -33.85          36.29          80.35           45.9         -11.28         -19.07          -13.6          30.42          131.4          13.88          46.32
    0.8506              -33.86          36.26          80.36          45.89         -11.27         -19.04         -13.66          30.48          131.1           14.0          46.36
    0.8833              -33.87          36.24          80.36          45.88         -11.27          -19.0         -13.72          30.54          130.8          14.13          46.41
     0.916              -33.88           36.2          80.37          45.87         -11.26         -18.95         -13.79          30.61          130.4          14.28          46.47
    0.9488               -33.9          36.17          80.37          45.86         -11.26          -18.9         -13.88          30.69          130.0          14.45          46.53
    0.9815              -33.91          36.13          80.38          45.85         -11.25         -18.85         -13.97          30.78          129.5          14.64           46.6
     1.014              -33.93          36.08          80.38          45.83         -11.24         -18.78         -14.08          30.88          129.0          14.86          46.69
     1.047              -33.95          36.02          80.39          45.81         -11.23         -18.71          -14.2           31.0          128.4          15.11          46.78
      1.08              -33.98          35.96           80.4          45.79         -11.22         -18.62         -14.34          31.14          127.6          15.41           46.9
     1.112               -34.0          35.88          80.41          45.77          -11.2         -18.52         -14.51           31.3          126.8          15.76          47.03
     1.145              -34.04           35.8          80.43          45.74         -11.19          -18.4         -14.71          31.49          125.8          16.17          47.18
     1.178              -34.08          35.69          80.44          45.71         -11.17         -18.25         -14.94          31.72          124.6          16.65          47.37
      1.21              -34.12          35.57          80.46          45.67         -11.14         -18.08         -15.22          31.99          123.1          17.23          47.59
     1.243              -34.18          35.41          80.48          45.62         -11.12         -17.88         -15.57          32.32          121.4          17.94          47.86
     1.276              -34.25          35.23          80.51          45.56         -11.08         -17.62         -15.98          32.72          119.3           18.8          48.18
     1.309              -34.34           35.0          80.54          45.49         -11.04         -17.31          -16.5          33.22          116.7          19.86          48.58
     1.341              -34.44          34.71          80.58          45.39         -10.99         -16.92         -17.14          33.84          113.4          21.18          49.09
     1.374              -34.58          34.35          80.63          45.28         -10.92         -16.43         -17.94          34.62          109.3          22.85          49.72
